<svg width="15" height="16" viewBox="0 0 15 16" fill="none" xmlns="http://www.w3.org/2000/svg">
<g clip-path="url(#clip0_8_370)">
<path d="M10.1733 8.95797L8.08184 7.38941V4.19424C8.08184 3.87297 7.82215 3.61328 7.50088 3.61328C7.17961 3.61328 6.91992 3.87297 6.91992 4.19424V7.67992C6.91992 7.86291 7.00591 8.03547 7.1523 8.14469L9.47607 9.88753C9.58063 9.96596 9.70266 10.0037 9.82406 10.0037C10.0012 10.0037 10.1755 9.92412 10.2894 9.77075C10.4823 9.51452 10.43 9.15027 10.1733 8.95797Z" fill="#999999"/>
<path d="M7.5 0.132812C3.36425 0.132812 0 3.49706 0 7.63281C0 11.7686 3.36425 15.1328 7.5 15.1328C11.6358 15.1328 15 11.7686 15 7.63281C15 3.49706 11.6358 0.132812 7.5 0.132812ZM7.5 13.9709C4.00562 13.9709 1.16188 11.1272 1.16188 7.63281C1.16188 4.13843 4.00562 1.2947 7.5 1.2947C10.995 1.2947 13.8381 4.13843 13.8381 7.63281C13.8381 11.1272 10.9944 13.9709 7.5 13.9709Z" fill="#999999"/>
</g>
<defs>
<clipPath id="clip0_8_370">
<rect width="15" height="15" fill="white" transform="translate(0 0.132812)"/>
</clipPath>
</defs>
</svg>
