<svg width="105" height="106" viewBox="0 0 105 106" fill="none" xmlns="http://www.w3.org/2000/svg">
<path d="M104.979 56.6385C104.854 53.7305 102.008 51.4083 96.5063 49.7347C92.2385 48.4586 86.8201 47.6845 80.9623 47.559V25.2368C80.9414 24.8602 80.8368 24.5046 80.6485 24.1908C80.0628 21.6594 77.2385 19.6092 72.2385 18.1029C67.5314 16.6803 61.3808 15.9062 54.9163 15.9062C48.4728 15.9062 42.3849 16.6803 37.7615 18.1029C33.9749 19.2745 29.4351 21.4502 29.4351 25.195C29.4351 25.4251 29.4561 25.6552 29.4979 25.8853L29.728 35.4251C16.1297 32.8309 3.01255 41.764 0.439331 55.3414C0.146444 56.8895 0 58.4376 0 60.0067C0 73.8142 11.2343 85.0485 25.0418 85.0485C30.795 85.0485 36.3598 83.082 40.8159 79.4418C44.728 80.3623 49.3305 80.8644 54.205 80.9062C55.272 86.7012 67.8243 89.3581 79.5188 89.3581C85.9623 89.3581 92.0502 88.5631 96.6736 87.1196C100.46 85.9481 105 83.7514 105 80.0067V57.036C105 56.9104 105 56.764 104.979 56.6385ZM76.59 36.8058C76.59 37.0778 75.5858 38.5213 71.046 39.9021C66.7992 41.1782 60.9205 41.9314 54.9372 41.9314C49.7699 41.9314 44.7071 41.3874 40.6904 40.3623C40.6276 40.3414 40.5858 40.3414 40.523 40.3205C38.5356 38.7514 36.3389 37.4962 33.9749 36.6175L33.8284 30.718C35.272 31.4502 36.7782 32.036 38.3473 32.4544C42.887 33.7724 48.7657 34.4837 54.9372 34.4837C61.3808 34.4837 67.5523 33.7096 72.2594 32.287C73.8284 31.8268 75.3557 31.2201 76.7992 30.4669V35.9481C76.569 36.241 76.59 36.5129 76.59 36.8058ZM39.0167 22.1406C43.2427 20.8435 48.8912 20.1113 54.9163 20.1113C60.8996 20.1113 66.7782 20.8435 71.0251 22.1406C75.5648 23.5213 76.569 24.9439 76.569 25.2159C76.569 25.5088 75.5439 26.9523 71.0042 28.3121C66.7573 29.5883 60.8996 30.3205 54.9163 30.3205C49.1423 30.3205 43.6611 29.651 39.4979 28.4376C35 27.1406 33.7448 25.718 33.6402 25.2577C33.6402 25.2159 33.6192 25.2159 33.6192 25.2159C33.6402 24.8184 34.6025 23.4795 39.0167 22.1406ZM39.0795 75.446C30.5649 83.1866 17.364 82.5799 9.62343 74.0652C1.88285 65.5506 2.48954 52.3498 11.0042 44.6092C14.8326 41.1155 19.8536 39.1908 25.0418 39.1908C27.1339 39.1908 29.205 39.5046 31.2134 40.1113C38.4728 42.3707 43.9331 48.3958 45.4812 55.8226C45.7531 57.2033 45.8996 58.6259 45.8996 60.0276C45.9205 65.9062 43.431 71.492 39.0795 75.446ZM44.3933 75.9063C46.0879 73.8351 47.4477 71.5129 48.41 69.0234C50.1883 69.1698 52.0293 69.2745 53.954 69.2954V69.6719L54.0795 76.764C50.8368 76.7221 47.5941 76.4293 44.3933 75.9063ZM49.9791 57.538C51.1925 57.6217 52.4686 57.6636 53.7657 57.6845L53.8912 65.0904C52.4268 65.0694 50.9833 65.0067 49.6025 64.9021C49.9163 63.2912 50.0837 61.6385 50.0837 60.0067C50.0837 59.1908 50.0418 58.3749 49.9791 57.538ZM55.1255 53.5213C55.0628 53.5213 54.9791 53.5213 54.9163 53.5213C52.9079 53.5213 50.9623 53.4376 49.1632 53.3121C48.3682 50.5088 47.113 47.8728 45.4184 45.5297C48.5565 45.9272 51.7155 46.1364 54.8954 46.1364C61.3598 46.1364 67.5314 45.3623 72.2385 43.9397C73.8075 43.4795 75.3138 42.8728 76.7573 42.1406V47.6217C67.7824 47.8728 58.5565 49.7556 55.1255 53.5213ZM57.887 56.8477C57.887 56.8268 57.887 56.8058 57.9079 56.764C58.0962 56.1991 59.5816 54.8184 63.9121 53.605C67.9707 52.4544 73.2636 51.8268 78.8284 51.8268H79.1841C85.1674 51.8268 91.0251 52.5171 95.2929 53.8142C99.749 55.1531 100.795 56.5339 100.816 56.8477V56.8686C100.795 57.1824 99.749 58.6259 95.1046 60.0067C90.8159 61.2828 85.1674 61.9732 79.205 61.9732C73.431 61.9732 67.9498 61.3037 63.7866 60.1113C59.2887 58.8142 58.0544 57.3707 57.9289 56.9314C57.887 56.8477 57.887 56.8477 57.887 56.8477ZM95.4602 83.1447C91.2343 84.4627 85.5649 85.195 79.5397 85.195C73.4937 85.195 67.8452 84.4837 63.6611 83.2075C59.2469 81.8477 58.3264 80.446 58.3264 80.1322C58.3264 80.1113 58.3264 80.1113 58.3264 80.0904L58.2218 74.0234C59.8954 74.8393 61.6318 75.4669 63.431 75.9272C67.8243 77.0778 73.41 77.7263 79.1423 77.7263C85.6067 77.7263 91.7364 76.9523 96.4226 75.5297C97.9498 75.0694 99.4142 74.4627 100.816 73.7514V80.0276H100.837C100.837 80.3205 99.8745 81.764 95.4602 83.1447ZM100.858 67.7473H100.837C100.837 67.9565 100.711 68.2075 100.711 68.4376C100.711 68.7305 99.728 70.1531 95.2092 71.5339C90.9205 72.8309 85.2092 73.5422 79.1632 73.5422C67.5732 73.5422 59.7699 70.9272 58.1381 68.8979L58.1171 67.1406L58.0335 62.3288C59.4979 63.0611 61.0251 63.6468 62.5941 64.0862C67.1339 65.4042 73.0126 66.1155 79.1841 66.1155C85.5439 66.1155 91.6109 65.3623 96.2762 63.9816C97.8661 63.5422 99.3933 62.9355 100.858 62.1824V67.7473Z" fill="#00B1B0"/>
<path d="M36.3803 56.7268V59.7408H33.2563L30.9023 69.1128H27.2723L24.5003 56.7048L21.7283 69.1128H18.0983L15.7443 59.7408H12.6203V56.7268H14.9963L13.6103 51.1828H17.4823L18.6043 56.7268H21.3983L22.6083 51.1828H26.5903L27.8223 56.7268H30.5943L31.7163 51.1828H35.3903L34.0043 56.7268H36.3803ZM19.2203 59.7408L19.9463 63.2828L20.7163 59.7408H19.2203ZM29.2743 63.3488L30.0003 59.7408H28.4823L29.2743 63.3488Z" fill="#00B1B0"/>
</svg>
