<svg width="110" height="111" viewBox="0 0 110 111" fill="none" xmlns="http://www.w3.org/2000/svg">
<g clip-path="url(#clip0_8_229)">
<path d="M77.2696 20.5491C74.7355 17.7012 71.2229 16.1328 67.3787 16.1328C63.0878 16.1328 59.3683 18.1617 56.6223 22C56.4164 22.2878 56.2238 22.5756 56.0433 22.8605C55.8629 22.5754 55.6703 22.2878 55.4644 22C52.7182 18.1617 48.9988 16.1328 44.7079 16.1328C40.8636 16.1328 37.3509 17.7012 34.817 20.5489C32.4124 23.2515 31.0879 26.8645 31.0879 30.7223C31.0879 34.9146 32.7148 38.7831 36.2072 42.897C39.2546 46.4862 43.6256 50.1755 48.6871 54.4475C50.5574 56.0262 52.4915 57.6586 54.5468 59.4399C54.9761 59.812 55.5096 59.9981 56.0431 59.9981C56.5765 59.9981 57.11 59.812 57.5394 59.4399C59.5944 57.659 61.5282 56.0267 63.3986 54.4483C66.6491 51.7046 69.4564 49.3352 71.8925 47.0369C76.6221 42.5745 80.9987 37.5095 80.9987 30.7224C80.9987 26.8645 79.6743 23.2517 77.2696 20.5491ZM68.7568 43.7132C66.4128 45.9248 63.6502 48.2564 60.4515 50.9562C59.0284 52.1572 57.569 53.389 56.0433 54.6973C54.5172 53.3892 53.0573 52.157 51.6343 50.9558C41.6712 42.5466 35.6573 37.4708 35.6573 30.7224C35.657 25.01 39.5478 20.7024 44.7077 20.7024C47.4644 20.7024 49.8088 22 51.6757 24.5592C53.208 26.6594 53.837 28.8367 53.8413 28.8514C54.1155 29.8411 55.0162 30.5264 56.0431 30.5264C57.0701 30.5264 57.9707 29.8411 58.2449 28.8514C58.2675 28.7699 60.5804 20.7024 67.3787 20.7024C72.5384 20.7024 76.4294 25.0102 76.4294 30.7224C76.4294 34.8615 74.2782 38.5037 68.7568 43.7132Z" fill="#00B1B0"/>
<path d="M87.1365 62.1485C85.2412 62.1485 83.4129 62.9442 82.1206 64.3314L75.4058 71.54C74.5379 68.7497 71.9316 66.7179 68.8594 66.7179H58.3051C56.8275 66.7179 55.4026 66.1802 54.2932 65.204C48.327 59.9537 39.3592 59.9075 33.3363 65.0588C32.0942 63.3003 30.0476 62.1486 27.7357 62.1486H18.2925C17.0308 62.1486 16.0078 63.1715 16.0078 64.4333V91.8491C16.0078 93.1108 17.0306 94.1338 18.2925 94.1338H27.7357C29.7874 94.1338 31.6302 93.2262 32.8873 91.793L34.2403 92.1732C38.8682 93.4741 43.6521 94.1336 48.4593 94.1336H68.8593C73.8662 94.1336 78.649 91.7421 81.6532 87.7365L92.6218 73.112C92.6219 73.1117 92.6221 73.1114 92.6224 73.1111C93.5174 71.9177 93.9904 70.4969 93.9904 69.0023C93.9904 65.2231 90.9157 62.1485 87.1365 62.1485ZM30.0204 87.2795C30.0204 88.5392 28.9955 89.5642 27.7357 89.5642H20.577V66.7177H27.7357C28.9954 66.7177 30.0204 67.7425 30.0204 69.0024V87.2795ZM88.9666 70.37L88.9663 70.3703L77.9979 84.9951C75.852 87.8563 72.4357 89.5644 68.8593 89.5644H48.4597C44.0705 89.5644 39.7026 88.9621 35.4772 87.7745L34.5837 87.5233C34.5866 87.4422 34.5899 87.3613 34.5899 87.2797V70.0351L36.182 68.634C40.4842 64.8483 46.9727 64.848 51.2752 68.634C53.2192 70.3447 55.7157 71.2868 58.3054 71.2868H68.8597C70.1194 71.2868 71.1444 72.3118 71.1444 73.5715C71.1444 74.8312 70.1196 75.8562 68.8597 75.8562H52.6222C51.3605 75.8562 50.3375 76.879 50.3375 78.1409C50.3375 79.4027 51.3603 80.4256 52.6222 80.4256H70.3906C72.2859 80.4256 74.1139 79.6302 75.4059 78.2433L85.4641 67.4458C85.9015 66.9762 86.4955 66.7177 87.1365 66.7177C88.3962 66.7177 89.4212 67.7425 89.4212 69.0024C89.4212 69.5006 89.264 69.9734 88.9666 70.37Z" fill="#00B1B0"/>
</g>
<defs>
<clipPath id="clip0_8_229">
<rect width="78" height="78" fill="white" transform="translate(16 16.1328)"/>
</clipPath>
</defs>
</svg>
