<svg width="250" height="39" viewBox="0 0 250 39" fill="none" xmlns="http://www.w3.org/2000/svg">
<g clip-path="url(#clip0_8_130)">
<path d="M15.6895 9.94141V23.9773C15.6895 28.8902 18.8628 31.1709 22.7887 31.1709C26.7146 31.1709 29.895 28.9108 29.895 23.9773V9.94141H15.6895ZM27.9641 17.0593H25.8272V18.0032H27.9641V20.3253H25.8272V27.264H23.9956L21.4611 24.7972L19.1397 27.0504L17.4572 25.4174L21.305 21.6827L23.2927 23.6121V14.0274H19.1042V11.9534H25.7633V14.9232H27.9641V17.0593Z" fill="#032E86"/>
<path d="M40.054 4.40995V5.50535e-05H36.192C34.7508 5.50535e-05 31.4213 -0.0275069 28.1698 1.15076C26.0826 1.90871 24.031 3.2179 22.7886 4.97497C21.5462 3.2179 19.4945 1.90871 17.4074 1.15076C14.1559 -0.0275069 10.8264 5.50535e-05 9.3852 5.50535e-05H5.52321V4.40995H0V35.8925H8.512C11.1387 35.8925 16.6903 36.0578 20.7724 39.0001L20.8789 38.9105C20.0696 37.1534 17.5351 33.7082 7.5607 33.7082H2.77581V6.63557H5.53031V31.5515H7.20574C11.8841 31.6066 18.2593 32.2681 22.0006 37.9665L22.1213 37.87C21.9225 35.1965 18.9337 29.3741 8.4481 29.3741V6.63557H8.58299C16.3709 6.63557 18.7775 7.40041 21.0351 8.6338L21.1274 8.55801C18.8343 5.41596 13.4602 4.50642 8.4481 4.41684V2.23945H9.83246C11.5718 2.23945 14.2269 2.39794 16.7613 3.13521C18.1244 3.52797 21.028 4.74069 22.8028 7.23504C24.5776 4.7338 27.4812 3.52797 28.8442 3.13521C31.3787 2.40483 34.0338 2.23945 35.7731 2.23945H37.1575V4.41684C32.1454 4.51331 26.7642 5.42285 24.4782 8.55801L24.5705 8.6338C26.8281 7.40041 29.2276 6.63557 37.0226 6.63557H37.1575V29.3672C26.6719 29.3672 23.6831 35.1896 23.4843 37.8631L23.605 37.9596C27.3392 32.2612 33.7214 31.6066 38.3927 31.5446H40.0681V6.63557H42.8227V33.7082H38.0378C28.0633 33.7082 25.5289 37.1603 24.7196 38.9105L24.8261 39.0001C28.9081 36.0578 34.4526 35.8925 37.0865 35.8925H45.5985V4.40995H40.0681H40.054Z" fill="url(#paint0_linear_8_130)"/>
<path d="M67.7268 14.6749L65.8881 17.0108C63.5027 15.8739 61.9125 13.7998 61.0251 11.2366C60.0809 13.9652 58.4268 16.1977 55.9704 17.376L54.082 14.9919C57.7665 13.3864 59.442 9.35548 59.4633 5.43481V2.32032H62.5088V5.43481C62.5088 9.35548 64.1417 13.159 67.7268 14.6749ZM72.5259 21.6136H69.5513V9.6311H65.3272V7.26767H69.5513V0.714844H72.5259V21.6205V21.6136Z" fill="#032E86"/>
<path d="M94.6545 11.2578H86.3413V12.6565H92.2691V17.976H80.2998V19.2369H92.8371V21.435H77.3465V15.9364H89.2945V14.7926H77.3252V12.6634H83.3241V11.2647H75.0605V8.97015H94.6616V11.2647L94.6545 11.2578ZM92.6667 4.47068C92.6454 6.7652 89.7844 8.02616 84.8504 8.02616C79.9164 8.02616 77.0128 6.7652 77.0128 4.47068C77.0128 2.17616 79.8951 0.894531 84.8504 0.894531C89.8057 0.894531 92.6454 2.15549 92.6667 4.47068ZM80.172 4.47068C80.1507 5.47669 81.6841 5.89011 84.8504 5.89011C88.0167 5.89011 89.5501 5.47669 89.5501 4.47068C89.5501 3.46467 88.038 3.05125 84.8504 3.05125C81.6628 3.05125 80.1507 3.51291 80.172 4.47068Z" fill="#032E86"/>
<path d="M104.33 5.48304H99.3466V14.3786C101.427 14.3648 103.265 14.2615 105.345 13.8963L105.558 16.2804C102.939 16.7627 100.646 16.8316 97.8131 16.8523H96.3223V3.11961H104.33V5.48304ZM114.298 21.5723H111.437V11.0988H109.356V20.5663H106.595V1.05937H109.356V8.7629H111.437V0.714844H114.298V21.5723Z" fill="#032E86"/>
<path d="M139.23 12.3608H132.997V16.8051H141.381V19.1892H121.709V16.8051H130.001V12.3608H124.023V2.18359H139.067V4.51946H127.048V10.0456H139.23V12.3608Z" fill="#032E86"/>
<path d="M155.715 14.6749L153.876 17.0108C151.491 15.8739 149.901 13.7998 149.013 11.2366C148.069 13.9652 146.415 16.1977 143.958 17.376L142.07 14.9919C145.755 13.3864 147.43 9.35548 147.451 5.43481V2.32032H150.497V5.43481C150.497 9.35548 152.13 13.159 155.715 14.6749ZM160.507 21.6136H157.532V9.6311H153.308V7.26767H157.532V0.714844H160.507V21.6205V21.6136Z" fill="#032E86"/>
<path d="M169.743 11.0299C171.88 10.9472 174.074 10.7887 176.097 10.5062L176.26 12.6147C171.795 13.4209 166.74 13.4829 163.013 13.5104L162.75 11.1746C163.957 11.1746 165.313 11.1746 166.74 11.1263V7.04718H169.736V11.0368L169.743 11.0299ZM175.075 3.53304C175.075 4.97315 175.075 7.06096 174.578 9.65177L171.624 9.37615C172.001 7.37103 172.1 5.85513 172.121 4.60795H164.021V2.22385H175.075V3.53304ZM181.002 21.2071H165.909V14.9299H168.934V18.8712H181.002V21.2071ZM180.342 7.06096H182.941V9.51396H180.342V16.3217H177.247V0.714844H180.342V7.06096Z" fill="#032E86"/>
<path d="M202.534 11.139L201.093 13.4335C198.616 12.772 196.905 11.3801 195.918 9.6024C194.952 11.5386 193.199 13.0752 190.65 13.7711L189.209 11.5042C192.752 10.4982 194.335 8.04515 194.335 5.56459V5.40611H189.94V3.13915H194.335V0.823951H197.402V3.13915H201.768V5.40611H197.373V5.56459C197.352 7.90045 198.978 10.195 202.52 11.1321L202.534 11.139ZM207.589 21.2059H192.617V14.6255H195.662V18.8632H207.589V21.199V21.2059ZM207.021 15.9761H203.997V0.734375H207.021V15.9761Z" fill="#032E86"/>
<path d="M226.999 3.8078C226.999 5.7578 226.999 7.88695 226.452 10.8016H229.285V13.165H220.9V21.599H217.876V13.165H209.684V10.8016H223.406C223.946 8.10745 223.996 6.06787 223.996 4.26946H211.927V1.93359H226.992V3.81469L226.999 3.8078Z" fill="#032E86"/>
<path d="M250 11.1407H230.35V8.84622H250V11.1407ZM247.572 17.8383H235.603V19.1199H248.14V21.3869H232.65V15.7505H244.598V14.5791H232.628V12.381H247.579V17.8383H247.572ZM247.665 7.7024H232.813V1.12891H247.501V3.46477H235.809V5.41477H247.665V7.70929V7.7024Z" fill="#032E86"/>
<path d="M54.9844 29.125H61.1039V30.6064H57.0219V32.8734H60.8271V34.4031H57.0219V38.3307H54.9844V29.1319V29.125Z" fill="#032E86"/>
<path d="M62.168 29.1127H65.8028C66.8535 29.0989 67.9184 29.0989 68.678 29.7397C69.2672 30.2358 69.5086 30.9111 69.5086 31.5106C69.5086 33.2332 67.9894 33.6397 67.5279 33.7637C68.962 33.8947 69.0613 34.6802 69.2317 35.8791C69.3737 36.9609 69.4518 37.4088 69.5228 37.6637C69.6293 38.0703 69.7074 38.1736 69.8139 38.3252H67.5705C67.4782 37.8153 67.1871 35.4863 67.0594 35.128C66.8748 34.6044 66.3778 34.6044 66.0371 34.6044H64.248V38.3252H62.1751V29.1127H62.168ZM64.1771 33.1367H65.817C66.0513 33.1367 66.5269 33.1367 66.8535 32.8818C66.9955 32.7784 67.3788 32.4614 67.3788 31.8137C67.3788 31.166 67.0664 30.8973 66.8819 30.7802C66.5695 30.5666 66.1861 30.5666 65.5401 30.5666H64.1771V33.1436V33.1367Z" fill="#032E86"/>
<path d="M70.9219 29.082H72.9594V38.3221H70.9219V29.082Z" fill="#032E86"/>
<path d="M74.7559 29.1094H81.1097V30.6115H76.7933V32.8027H80.8399V34.3048H76.7933V36.7922H81.2588V38.3219H74.763V29.1094H74.7559Z" fill="#032E86"/>
<path d="M82.7493 29.1094H85.6884L89.2451 36.3581V29.1094H91.1335V38.3219H88.3364L84.659 30.6735V38.3219H82.7422V29.1094H82.7493Z" fill="#032E86"/>
<path d="M92.873 29.1328L96.0109 29.1466C96.5363 29.1466 98.1407 29.1604 99.2766 29.9734C100.469 30.8279 100.895 32.2818 100.895 33.5909C100.895 36.4229 99.3334 37.8975 97.5372 38.2144C97.1823 38.2765 96.7918 38.3178 95.8334 38.3178H92.8801V29.1328H92.873ZM94.9318 36.8088C95.1519 36.8226 95.4927 36.8363 95.734 36.8363C96.6002 36.8363 97.3527 36.7743 97.9419 36.2024C98.7441 35.4238 98.7938 34.0526 98.7938 33.6047C98.7938 32.3024 98.3324 31.1104 97.0616 30.7659C96.6427 30.6487 96.1032 30.5867 94.9318 30.6418V36.8226V36.8088Z" fill="#032E86"/>
<path d="M104.026 35.3828C104.026 35.8169 103.998 37.1261 105.744 37.1261C106.845 37.1261 107.54 36.6162 107.54 35.8376C107.54 35.0245 106.951 34.8798 105.744 34.6042C103.487 34.0599 102.251 33.4053 102.251 31.8136C102.251 30.2219 103.366 28.9609 106.007 28.9609C106.994 28.9609 108.158 29.1745 108.868 30.0427C109.407 30.7042 109.407 31.4415 109.407 31.7516H107.455C107.427 31.4346 107.32 30.3528 105.922 30.3528C104.977 30.3528 104.36 30.8489 104.36 31.6C104.36 32.4544 105.055 32.606 106.419 32.9367C108.058 33.3226 109.677 33.7498 109.677 35.5482C109.677 37.2019 108.257 38.5456 105.631 38.5456C101.996 38.5456 101.967 36.2786 101.953 35.3828H104.026Z" fill="#032E86"/>
<path d="M119.006 28.918C120.014 28.918 121.405 29.1454 122.342 30.1651C123.35 31.2883 123.549 32.7284 123.549 33.631C123.549 34.9678 123.13 36.3941 122.357 37.2348C121.306 38.3855 119.772 38.5508 118.984 38.5508C117.735 38.5508 116.493 38.1719 115.626 37.2899C114.59 36.2219 114.455 34.6922 114.455 33.8515C114.455 31.4054 115.598 28.918 119.013 28.918H119.006ZM117.288 36.3597C117.579 36.7386 118.061 37.0969 119.006 37.0969C119.836 37.0969 120.397 36.8144 120.781 36.2425C121.093 35.7809 121.427 35.0711 121.427 33.6035C121.427 33.1556 121.384 32.5217 121.192 31.9567C120.802 30.8197 120 30.3236 119.027 30.3236C118.267 30.3236 117.664 30.6268 117.281 31.1022C116.741 31.7362 116.585 32.7353 116.585 33.7757C116.585 34.6577 116.727 35.6362 117.295 36.3528L117.288 36.3597Z" fill="#032E86"/>
<path d="M125.018 29.125H131.137V30.6064H127.055V32.8734H130.86V34.4031H127.055V38.3307H125.018V29.1319V29.125Z" fill="#032E86"/>
<path d="M136.101 30.6391H133.275V29.1094H140.971V30.6391H138.145V38.3219H136.101V30.6391Z" fill="#032E86"/>
<path d="M141.993 29.1094H144.031V32.7889H147.616V29.1094H149.675V38.3219H147.637V34.2841H144.024V38.3219H141.986V29.1094H141.993Z" fill="#032E86"/>
<path d="M151.555 29.1094H157.909V30.6115H153.592V32.8027H157.639V34.3048H153.592V36.7922H158.058V38.3219H151.562V29.1094H151.555Z" fill="#032E86"/>
<path d="M164.788 35.3828C164.788 35.8169 164.759 37.1261 166.506 37.1261C167.606 37.1261 168.302 36.6162 168.302 35.8376C168.302 35.0245 167.713 34.8798 166.506 34.6042C164.248 34.0599 163.013 33.4053 163.013 31.8136C163.013 30.2219 164.128 28.9609 166.769 28.9609C167.755 28.9609 168.92 29.1745 169.63 30.0427C170.169 30.7042 170.169 31.4415 170.169 31.7516H168.217C168.188 31.4346 168.082 30.3528 166.683 30.3528C165.739 30.3528 165.121 30.8489 165.121 31.6C165.121 32.4544 165.817 32.606 167.18 32.9367C168.82 33.3226 170.439 33.7498 170.439 35.5482C170.439 37.2019 169.019 38.5456 166.392 38.5456C162.757 38.5456 162.729 36.2786 162.715 35.3828H164.788Z" fill="#032E86"/>
<path d="M171.958 29.1094H174.897L178.454 36.3581V29.1094H180.342V38.3219H177.545L173.868 30.6735V38.3219H171.951V29.1094H171.958Z" fill="#032E86"/>
<path d="M184.204 29.1328V34.7416C184.204 35.7477 184.282 37.0086 186.263 37.0086C186.59 37.0086 187.576 36.9948 188.102 36.2024C188.3 35.9199 188.407 35.5685 188.407 34.6383V29.1328H190.388V34.8795C190.388 37.6219 188.144 38.4969 186.228 38.4969C185.283 38.4969 183.551 38.2902 182.657 36.9053C182.195 36.2024 182.174 35.4927 182.174 34.6383V29.1328H184.211H184.204Z" fill="#032E86"/>
<path d="M195.99 29.125H198.063V36.7596H202.131V38.3238H195.99V29.125Z" fill="#032E86"/>
<path d="M203.174 29.082H205.211V38.3221H203.174V29.082Z" fill="#032E86"/>
<path d="M206.929 29.125H210.471C211.025 29.125 212.083 29.125 212.807 29.5591C213.673 30.0966 213.872 30.9854 213.872 31.5229C213.872 31.8674 213.808 32.4669 213.318 32.901C213.254 32.9768 212.793 33.3833 212.239 33.528V33.5556C213.687 33.8105 214.248 34.8303 214.248 35.795C214.248 36.8768 213.595 37.6072 212.857 37.9586C212.119 38.3307 210.834 38.3307 210.464 38.3307H206.922V29.1319L206.929 29.125ZM208.867 32.8665H210.287C210.862 32.8665 211.913 32.8665 211.913 31.6814C211.913 30.4962 210.912 30.5307 210.244 30.5307H208.867V32.8596V32.8665ZM208.867 36.8423H210.244C211.174 36.8423 212.225 36.8423 212.225 35.6089C212.225 34.2997 211.004 34.2997 210.031 34.2997H208.86V36.8492L208.867 36.8423Z" fill="#032E86"/>
<path d="M215.576 29.1127H219.211C220.262 29.0989 221.327 29.0989 222.086 29.7397C222.675 30.2358 222.917 30.9111 222.917 31.5106C222.917 33.2332 221.398 33.6397 220.936 33.7637C222.37 33.8947 222.47 34.6802 222.64 35.8791C222.782 36.9609 222.86 37.4088 222.931 37.6637C223.037 38.0703 223.116 38.1736 223.222 38.3252H220.979C220.886 37.8153 220.595 35.4863 220.468 35.128C220.283 34.6044 219.786 34.6044 219.445 34.6044H217.656V38.3252H215.583V29.1127H215.576ZM217.585 33.1367H219.225C219.459 33.1367 219.935 33.1367 220.262 32.8818C220.404 32.7784 220.787 32.4614 220.787 31.8137C220.787 31.166 220.475 30.8973 220.29 30.7802C219.978 30.5666 219.594 30.5666 218.948 30.5666H217.585V33.1436V33.1367Z" fill="#032E86"/>
<path d="M229.456 29.1094L232.75 38.3219H230.705L230.024 36.3375H226.268L225.558 38.3219H223.613L227.042 29.1094H229.456ZM229.506 34.8422L228.192 30.9147L226.787 34.8422H229.506Z" fill="#032E86"/>
<path d="M233.807 29.1127H237.441C238.492 29.0989 239.557 29.0989 240.317 29.7397C240.906 30.2358 241.147 30.9111 241.147 31.5106C241.147 33.2332 239.628 33.6397 239.167 33.7637C240.601 33.8947 240.7 34.6802 240.87 35.8791C241.012 36.9609 241.09 37.4088 241.161 37.6637C241.268 38.0703 241.346 38.1736 241.453 38.3252H239.209C239.117 37.8153 238.826 35.4863 238.698 35.128C238.513 34.6044 238.017 34.6044 237.676 34.6044H235.887V38.3252H233.814V29.1127H233.807ZM235.816 33.1367H237.456C237.69 33.1367 238.166 33.1367 238.492 32.8818C238.634 32.7784 239.017 32.4614 239.017 31.8137C239.017 31.166 238.705 30.8973 238.521 30.7802C238.208 30.5666 237.825 30.5666 237.179 30.5666H235.816V33.1436V33.1367Z" fill="#032E86"/>
<path d="M243.839 29.1436L245.791 33.333L247.786 29.1436H249.874L246.672 34.966V38.3148H244.663V34.9385L241.461 29.1367H243.839V29.1436Z" fill="#032E86"/>
</g>
<defs>
<linearGradient id="paint0_linear_8_130" x1="22.7886" y1="-0.620086" x2="22.7886" y2="39.9096" gradientUnits="userSpaceOnUse">
<stop stop-color="#35B5C2"/>
<stop offset="0.34" stop-color="#009CBA"/>
<stop offset="0.71" stop-color="#193889"/>
<stop offset="1" stop-color="#193889"/>
</linearGradient>
<clipPath id="clip0_8_130">
<rect width="250" height="39" fill="white"/>
</clipPath>
</defs>
</svg>
